# Blender v2.93.5 OBJ File: 'obstacle.blend'
# www.blender.org
mtllib obstacle.mtl
o Cube
v 0.223750 5.583508 0.814549
v 0.223750 -1.777528 0.814549
v 0.223750 5.583508 1.045737
v 0.223750 -1.777528 1.045737
v -0.152080 5.583508 0.814549
v -0.152080 -1.777528 0.814549
v -0.152080 5.583508 1.045737
v -0.152080 -1.777528 1.045737
vt 0.625000 0.500000
vt 0.875000 0.500000
vt 0.875000 0.750000
vt 0.625000 0.750000
vt 0.375000 0.750000
vt 0.625000 1.000000
vt 0.375000 1.000000
vt 0.375000 0.000000
vt 0.625000 0.000000
vt 0.625000 0.250000
vt 0.375000 0.250000
vt 0.125000 0.500000
vt 0.375000 0.500000
vt 0.125000 0.750000
vn 0.0000 1.0000 0.0000
vn 0.0000 0.0000 1.0000
vn -1.0000 0.0000 0.0000
vn 0.0000 -1.0000 0.0000
vn 1.0000 0.0000 0.0000
vn 0.0000 0.0000 -1.0000
usemtl Material.001
s off
f 1/1/1 5/2/1 7/3/1 3/4/1
f 4/5/2 3/4/2 7/6/2 8/7/2
f 8/8/3 7/9/3 5/10/3 6/11/3
f 6/12/4 2/13/4 4/5/4 8/14/4
f 2/13/5 1/1/5 3/4/5 4/5/5
f 6/11/6 5/10/6 1/1/6 2/13/6
o Cube.001
v -4.503119 5.560102 1.080277
v -4.503119 -1.789961 1.080277
v -4.503119 5.560102 1.306051
v -4.503119 -1.789961 1.306051
v -4.878948 5.560102 1.080277
v -4.878948 -1.789961 1.080277
v -4.878948 5.560102 1.306051
v -4.878948 -1.789961 1.306051
vt 0.625000 0.500000
vt 0.875000 0.500000
vt 0.875000 0.750000
vt 0.625000 0.750000
vt 0.125000 0.500000
vt 0.375000 0.500000
vt 0.375000 0.750000
vt 0.125000 0.750000
vt 0.625000 1.000000
vt 0.375000 1.000000
vt 0.375000 0.000000
vt 0.625000 0.000000
vt 0.625000 0.250000
vt 0.375000 0.250000
vn 0.0000 1.0000 0.0000
vn 0.0000 -1.0000 0.0000
vn 0.0000 0.0000 1.0000
vn -1.0000 0.0000 0.0000
vn 1.0000 0.0000 0.0000
vn 0.0000 0.0000 -1.0000
usemtl Material
s off
f 9/15/7 13/16/7 15/17/7 11/18/7
f 14/19/8 10/20/8 12/21/8 16/22/8
usemtl Material.001
f 12/21/9 11/18/9 15/23/9 16/24/9
f 16/25/10 15/26/10 13/27/10 14/28/10
f 10/20/11 9/15/11 11/18/11 12/21/11
f 14/28/12 13/27/12 9/15/12 10/20/12
o Cube.002
v -1.293251 5.201391 0.926731
v 0.190579 4.820545 0.849248
v -1.283492 5.210988 1.066434
v 0.200337 4.830142 0.988950
v -1.350184 4.975605 0.946219
v 0.133646 4.594760 0.868736
v -1.340426 4.985203 1.085922
v 0.143404 4.604357 1.008438
v -2.676795 4.575305 1.129810
v -2.733728 4.349520 1.149297
v -2.686553 4.565708 0.990107
v -2.743487 4.339923 1.009595
v -4.568431 5.060821 1.228588
v -4.625365 4.835035 1.248076
v -4.578190 5.051223 1.088885
v -4.635123 4.825438 1.108373
vt 0.125000 0.500000
vt 0.375000 0.500000
vt 0.375000 0.750000
vt 0.125000 0.750000
vt 0.625000 0.250000
vt 0.625000 0.000000
vt 0.625000 0.000000
vt 0.625000 0.250000
vt 0.625000 0.750000
vt 0.625000 1.000000
vt 0.375000 1.000000
vt 0.375000 0.000000
vt 0.375000 0.250000
vt 0.625000 0.500000
vt 0.625000 0.000000
vt 0.625000 0.250000
vt 0.625000 0.500000
vt 0.625000 0.750000
vt 0.625000 1.000000
vt 0.625000 0.500000
vt 0.875000 0.500000
vt 0.875000 0.750000
vt 0.625000 0.750000
vt 0.625000 1.000000
vn 0.9674 -0.2483 -0.0505
vn 0.4161 -0.9087 0.0334
vn 0.0695 0.0684 0.9952
vn -0.2437 -0.9663 0.0834
vn 0.2437 0.9663 -0.0834
vn -0.0695 -0.0684 -0.9952
vn -0.4161 0.9087 -0.0334
vn -0.0069 -0.0843 -0.9964
vn 0.0069 0.0843 0.9964
vn -0.9674 0.2483 0.0505
usemtl Material
s off
f 22/29/13 18/30/13 20/31/13 24/32/13
usemtl r1
f 21/33/14 23/34/14 26/35/14 28/36/14
f 20/31/15 19/37/15 23/38/15 24/39/15
f 24/40/16 23/34/16 21/33/16 22/41/16
f 18/30/17 17/42/17 19/37/17 20/31/17
f 22/41/18 21/33/18 17/42/18 18/30/18
f 28/36/16 26/35/16 30/43/16 32/44/16
f 19/37/19 17/42/19 27/45/19 25/46/19
f 17/42/20 21/33/20 28/36/20 27/45/20
f 23/38/21 19/37/21 25/46/21 26/47/21
f 31/48/22 32/49/22 30/50/22 29/51/22
f 26/47/15 25/46/15 29/51/15 30/52/15
f 27/45/18 28/36/18 32/44/18 31/48/18
f 25/46/17 27/45/17 31/48/17 29/51/17
o Cube.003
v -1.269838 3.999546 0.916928
v 0.213991 3.618701 0.839444
v -1.260080 4.009144 1.056630
v 0.223750 3.628298 0.979147
v -1.326772 3.773761 0.936415
v 0.157058 3.392915 0.858932
v -1.317013 3.783359 1.076118
v 0.166816 3.402513 0.998635
v -2.653383 3.373461 1.120006
v -2.710316 3.147676 1.139494
v -2.663141 3.363864 0.980304
v -2.720074 3.138078 0.999791
v -4.545019 3.858976 1.218785
v -4.601953 3.633191 1.238272
v -4.554777 3.849379 1.079082
v -4.611711 3.623594 1.098570
vt 0.125000 0.500000
vt 0.375000 0.500000
vt 0.375000 0.750000
vt 0.125000 0.750000
vt 0.625000 0.250000
vt 0.625000 0.000000
vt 0.625000 0.000000
vt 0.625000 0.250000
vt 0.625000 0.750000
vt 0.625000 1.000000
vt 0.375000 1.000000
vt 0.375000 0.000000
vt 0.375000 0.250000
vt 0.625000 0.500000
vt 0.625000 0.000000
vt 0.625000 0.250000
vt 0.625000 0.500000
vt 0.625000 0.750000
vt 0.625000 1.000000
vt 0.625000 0.500000
vt 0.875000 0.500000
vt 0.875000 0.750000
vt 0.625000 0.750000
vt 0.625000 1.000000
vn 0.9674 -0.2483 -0.0505
vn 0.4161 -0.9087 0.0334
vn 0.0695 0.0684 0.9952
vn -0.2437 -0.9663 0.0834
vn 0.2437 0.9663 -0.0834
vn -0.0695 -0.0684 -0.9952
vn -0.4161 0.9087 -0.0334
vn -0.0069 -0.0843 -0.9964
vn 0.0069 0.0843 0.9964
vn -0.9674 0.2483 0.0505
usemtl Material
s off
f 38/53/23 34/54/23 36/55/23 40/56/23
usemtl r1
f 37/57/24 39/58/24 42/59/24 44/60/24
f 36/55/25 35/61/25 39/62/25 40/63/25
f 40/64/26 39/58/26 37/57/26 38/65/26
f 34/54/27 33/66/27 35/61/27 36/55/27
f 38/65/28 37/57/28 33/66/28 34/54/28
f 44/60/26 42/59/26 46/67/26 48/68/26
f 35/61/29 33/66/29 43/69/29 41/70/29
f 33/66/30 37/57/30 44/60/30 43/69/30
f 39/62/31 35/61/31 41/70/31 42/71/31
f 47/72/32 48/73/32 46/74/32 45/75/32
f 42/71/25 41/70/25 45/75/25 46/76/25
f 43/69/28 44/60/28 48/68/28 47/72/28
f 41/70/27 43/69/27 47/72/27 45/75/27
o Cube.004
v -1.371835 2.876031 0.971809
v 0.111994 2.495186 0.894325
v -1.362077 2.885629 1.111511
v 0.121753 2.504783 1.034028
v -1.428769 2.650246 0.991297
v 0.055061 2.269401 0.913813
v -1.419010 2.659844 1.130999
v 0.064820 2.278998 1.053516
v -2.755379 2.249946 1.174887
v -2.812313 2.024161 1.194375
v -2.765138 2.240349 1.035185
v -2.822071 2.014564 1.054672
v -4.647016 2.735461 1.273666
v -4.703949 2.509676 1.293153
v -4.656774 2.725864 1.133963
v -4.713707 2.500079 1.153451
vt 0.125000 0.500000
vt 0.375000 0.500000
vt 0.375000 0.750000
vt 0.125000 0.750000
vt 0.625000 0.250000
vt 0.625000 0.000000
vt 0.625000 0.000000
vt 0.625000 0.250000
vt 0.625000 0.750000
vt 0.625000 1.000000
vt 0.375000 1.000000
vt 0.375000 0.000000
vt 0.375000 0.250000
vt 0.625000 0.500000
vt 0.625000 0.000000
vt 0.625000 0.250000
vt 0.625000 0.500000
vt 0.625000 0.750000
vt 0.625000 1.000000
vt 0.625000 0.500000
vt 0.875000 0.500000
vt 0.875000 0.750000
vt 0.625000 0.750000
vt 0.625000 1.000000
vn 0.9674 -0.2483 -0.0505
vn 0.4161 -0.9087 0.0334
vn 0.0695 0.0684 0.9952
vn -0.2437 -0.9663 0.0834
vn 0.2437 0.9663 -0.0834
vn -0.0695 -0.0684 -0.9952
vn -0.4161 0.9087 -0.0334
vn -0.0069 -0.0843 -0.9964
vn 0.0069 0.0843 0.9964
vn -0.9674 0.2483 0.0505
usemtl Material
s off
f 54/77/33 50/78/33 52/79/33 56/80/33
usemtl r1
f 53/81/34 55/82/34 58/83/34 60/84/34
f 52/79/35 51/85/35 55/86/35 56/87/35
f 56/88/36 55/82/36 53/81/36 54/89/36
f 50/78/37 49/90/37 51/85/37 52/79/37
f 54/89/38 53/81/38 49/90/38 50/78/38
f 60/84/36 58/83/36 62/91/36 64/92/36
f 51/85/39 49/90/39 59/93/39 57/94/39
f 49/90/40 53/81/40 60/84/40 59/93/40
f 55/86/41 51/85/41 57/94/41 58/95/41
f 63/96/42 64/97/42 62/98/42 61/99/42
f 58/95/35 57/94/35 61/99/35 62/100/35
f 59/93/38 60/84/38 64/92/38 63/96/38
f 57/94/37 59/93/37 63/96/37 61/99/37
